<mxfile host="65bd71144e">
    <diagram id="VsplOQqD7rIrru3s_meI" name="Page-1">
        <mxGraphModel dx="1621" dy="859" grid="1" gridSize="10" guides="1" tooltips="1" connect="1" arrows="1" fold="1" page="1" pageScale="1" pageWidth="850" pageHeight="1100" math="0" shadow="0">
            <root>
                <mxCell id="0"/>
                <mxCell id="1" parent="0"/>
                <mxCell id="2" value="&lt;font style=&quot;font-size: 48px;&quot;&gt;Wordle&lt;/font&gt;" style="text;strokeColor=none;align=center;fillColor=none;html=1;verticalAlign=middle;whiteSpace=wrap;rounded=0;" vertex="1" parent="1">
                    <mxGeometry x="280" y="40" width="280" height="120" as="geometry"/>
                </mxCell>
                <mxCell id="20" value="" style="shape=table;startSize=0;container=1;collapsible=0;childLayout=tableLayout;fontSize=36;strokeWidth=3;strokeColor=#000000;perimeterSpacing=15;rounded=0;" vertex="1" parent="1">
                    <mxGeometry x="240" y="160" width="360" height="400" as="geometry"/>
                </mxCell>
                <mxCell id="21" value="" style="shape=tableRow;horizontal=0;startSize=0;swimlaneHead=0;swimlaneBody=0;top=0;left=0;bottom=0;right=0;collapsible=0;dropTarget=0;fillColor=none;points=[[0,0.5],[1,0.5]];portConstraint=eastwest;fontSize=36;" vertex="1" parent="20">
                    <mxGeometry width="360" height="66" as="geometry"/>
                </mxCell>
                <mxCell id="22" value="A" style="shape=partialRectangle;html=1;whiteSpace=wrap;connectable=0;overflow=hidden;fillColor=#60a917;top=0;left=0;bottom=0;right=0;pointerEvents=1;fontSize=36;strokeColor=#FFFFFF;fontColor=#ffffff;strokeWidth=15;perimeterSpacing=15;" vertex="1" parent="21">
                    <mxGeometry width="72" height="66" as="geometry">
                        <mxRectangle width="72" height="66" as="alternateBounds"/>
                    </mxGeometry>
                </mxCell>
                <mxCell id="23" value="M" style="shape=partialRectangle;html=1;whiteSpace=wrap;connectable=0;overflow=hidden;fillColor=#647687;top=0;left=0;bottom=0;right=0;pointerEvents=1;fontSize=36;fontColor=#ffffff;strokeColor=#314354;" vertex="1" parent="21">
                    <mxGeometry x="72" width="72" height="66" as="geometry">
                        <mxRectangle width="72" height="66" as="alternateBounds"/>
                    </mxGeometry>
                </mxCell>
                <mxCell id="24" value="I" style="shape=partialRectangle;html=1;whiteSpace=wrap;connectable=0;overflow=hidden;fillColor=#e3c800;top=0;left=0;bottom=0;right=0;pointerEvents=1;fontSize=36;strokeColor=#B09500;fontColor=#000000;" vertex="1" parent="21">
                    <mxGeometry x="144" width="72" height="66" as="geometry">
                        <mxRectangle width="72" height="66" as="alternateBounds"/>
                    </mxGeometry>
                </mxCell>
                <mxCell id="25" value="S" style="shape=partialRectangle;html=1;whiteSpace=wrap;connectable=0;overflow=hidden;fillColor=#647687;top=0;left=0;bottom=0;right=0;pointerEvents=1;fontSize=36;strokeColor=#314354;fontColor=#ffffff;" vertex="1" parent="21">
                    <mxGeometry x="216" width="72" height="66" as="geometry">
                        <mxRectangle width="72" height="66" as="alternateBounds"/>
                    </mxGeometry>
                </mxCell>
                <mxCell id="26" value="S" style="shape=partialRectangle;html=1;whiteSpace=wrap;connectable=0;overflow=hidden;fillColor=#647687;top=0;left=0;bottom=0;right=0;pointerEvents=1;fontSize=36;fontColor=#ffffff;strokeColor=#314354;" vertex="1" parent="21">
                    <mxGeometry x="288" width="72" height="66" as="geometry">
                        <mxRectangle width="72" height="66" as="alternateBounds"/>
                    </mxGeometry>
                </mxCell>
                <mxCell id="27" value="" style="shape=tableRow;horizontal=0;startSize=0;swimlaneHead=0;swimlaneBody=0;top=0;left=0;bottom=0;right=0;collapsible=0;dropTarget=0;fillColor=none;points=[[0,0.5],[1,0.5]];portConstraint=eastwest;fontSize=36;" vertex="1" parent="20">
                    <mxGeometry y="66" width="360" height="68" as="geometry"/>
                </mxCell>
                <mxCell id="28" value="A" style="shape=partialRectangle;html=1;whiteSpace=wrap;connectable=0;overflow=hidden;fillColor=#60a917;top=0;left=0;bottom=0;right=0;pointerEvents=1;fontSize=36;fontColor=#ffffff;strokeColor=#2D7600;" vertex="1" parent="27">
                    <mxGeometry width="72" height="68" as="geometry">
                        <mxRectangle width="72" height="68" as="alternateBounds"/>
                    </mxGeometry>
                </mxCell>
                <mxCell id="29" value="P" style="shape=partialRectangle;html=1;whiteSpace=wrap;connectable=0;overflow=hidden;fillColor=#647687;top=0;left=0;bottom=0;right=0;pointerEvents=1;fontSize=36;fontColor=#ffffff;strokeColor=#314354;" vertex="1" parent="27">
                    <mxGeometry x="72" width="72" height="68" as="geometry">
                        <mxRectangle width="72" height="68" as="alternateBounds"/>
                    </mxGeometry>
                </mxCell>
                <mxCell id="30" value="H" style="shape=partialRectangle;html=1;whiteSpace=wrap;connectable=0;overflow=hidden;fillColor=#647687;top=0;left=0;bottom=0;right=0;pointerEvents=1;fontSize=36;fontColor=#ffffff;strokeColor=#314354;" vertex="1" parent="27">
                    <mxGeometry x="144" width="72" height="68" as="geometry">
                        <mxRectangle width="72" height="68" as="alternateBounds"/>
                    </mxGeometry>
                </mxCell>
                <mxCell id="31" value="I" style="shape=partialRectangle;html=1;whiteSpace=wrap;connectable=0;overflow=hidden;fillColor=#60a917;top=0;left=0;bottom=0;right=0;pointerEvents=1;fontSize=36;fontColor=#ffffff;strokeColor=#2D7600;" vertex="1" parent="27">
                    <mxGeometry x="216" width="72" height="68" as="geometry">
                        <mxRectangle width="72" height="68" as="alternateBounds"/>
                    </mxGeometry>
                </mxCell>
                <mxCell id="32" value="D" style="shape=partialRectangle;html=1;whiteSpace=wrap;connectable=0;overflow=hidden;fillColor=#60a917;top=0;left=0;bottom=0;right=0;pointerEvents=1;fontSize=36;fontColor=#ffffff;strokeColor=#2D7600;" vertex="1" parent="27">
                    <mxGeometry x="288" width="72" height="68" as="geometry">
                        <mxRectangle width="72" height="68" as="alternateBounds"/>
                    </mxGeometry>
                </mxCell>
                <mxCell id="33" value="" style="shape=tableRow;horizontal=0;startSize=0;swimlaneHead=0;swimlaneBody=0;top=0;left=0;bottom=0;right=0;collapsible=0;dropTarget=0;fillColor=none;points=[[0,0.5],[1,0.5]];portConstraint=eastwest;fontSize=36;" vertex="1" parent="20">
                    <mxGeometry y="134" width="360" height="66" as="geometry"/>
                </mxCell>
                <mxCell id="34" value="A" style="shape=partialRectangle;html=1;whiteSpace=wrap;connectable=0;overflow=hidden;fillColor=#60a917;top=0;left=0;bottom=0;right=0;pointerEvents=1;fontSize=36;fontColor=#ffffff;strokeColor=#FFFFFF;strokeWidth=15;" vertex="1" parent="33">
                    <mxGeometry width="72" height="66" as="geometry">
                        <mxRectangle width="72" height="66" as="alternateBounds"/>
                    </mxGeometry>
                </mxCell>
                <mxCell id="35" value="C" style="shape=partialRectangle;html=1;whiteSpace=wrap;connectable=0;overflow=hidden;fillColor=#60a917;top=0;left=0;bottom=0;right=0;pointerEvents=1;fontSize=36;fontColor=#ffffff;strokeColor=#2D7600;" vertex="1" parent="33">
                    <mxGeometry x="72" width="72" height="66" as="geometry">
                        <mxRectangle width="72" height="66" as="alternateBounds"/>
                    </mxGeometry>
                </mxCell>
                <mxCell id="36" value="R" style="shape=partialRectangle;html=1;whiteSpace=wrap;connectable=0;overflow=hidden;fillColor=#60a917;top=0;left=0;bottom=0;right=0;pointerEvents=1;fontSize=36;fontColor=#ffffff;strokeColor=#2D7600;" vertex="1" parent="33">
                    <mxGeometry x="144" width="72" height="66" as="geometry">
                        <mxRectangle width="72" height="66" as="alternateBounds"/>
                    </mxGeometry>
                </mxCell>
                <mxCell id="37" value="I" style="shape=partialRectangle;html=1;whiteSpace=wrap;connectable=0;overflow=hidden;fillColor=#60a917;top=0;left=0;bottom=0;right=0;pointerEvents=1;fontSize=36;fontColor=#ffffff;strokeColor=#2D7600;" vertex="1" parent="33">
                    <mxGeometry x="216" width="72" height="66" as="geometry">
                        <mxRectangle width="72" height="66" as="alternateBounds"/>
                    </mxGeometry>
                </mxCell>
                <mxCell id="38" value="D" style="shape=partialRectangle;html=1;whiteSpace=wrap;connectable=0;overflow=hidden;fillColor=#60a917;top=0;left=0;bottom=0;right=0;pointerEvents=1;fontSize=36;fontColor=#ffffff;strokeColor=#2D7600;" vertex="1" parent="33">
                    <mxGeometry x="288" width="72" height="66" as="geometry">
                        <mxRectangle width="72" height="66" as="alternateBounds"/>
                    </mxGeometry>
                </mxCell>
                <mxCell id="39" value="" style="shape=tableRow;horizontal=0;startSize=0;swimlaneHead=0;swimlaneBody=0;top=0;left=0;bottom=0;right=0;collapsible=0;dropTarget=0;fillColor=none;points=[[0,0.5],[1,0.5]];portConstraint=eastwest;fontSize=36;" vertex="1" parent="20">
                    <mxGeometry y="200" width="360" height="66" as="geometry"/>
                </mxCell>
                <mxCell id="40" value="" style="shape=partialRectangle;html=1;whiteSpace=wrap;connectable=0;overflow=hidden;fillColor=none;top=0;left=0;bottom=0;right=0;pointerEvents=1;fontSize=36;" vertex="1" parent="39">
                    <mxGeometry width="72" height="66" as="geometry">
                        <mxRectangle width="72" height="66" as="alternateBounds"/>
                    </mxGeometry>
                </mxCell>
                <mxCell id="41" value="" style="shape=partialRectangle;html=1;whiteSpace=wrap;connectable=0;overflow=hidden;fillColor=none;top=0;left=0;bottom=0;right=0;pointerEvents=1;fontSize=36;" vertex="1" parent="39">
                    <mxGeometry x="72" width="72" height="66" as="geometry">
                        <mxRectangle width="72" height="66" as="alternateBounds"/>
                    </mxGeometry>
                </mxCell>
                <mxCell id="42" value="" style="shape=partialRectangle;html=1;whiteSpace=wrap;connectable=0;overflow=hidden;fillColor=none;top=0;left=0;bottom=0;right=0;pointerEvents=1;fontSize=36;" vertex="1" parent="39">
                    <mxGeometry x="144" width="72" height="66" as="geometry">
                        <mxRectangle width="72" height="66" as="alternateBounds"/>
                    </mxGeometry>
                </mxCell>
                <mxCell id="43" value="" style="shape=partialRectangle;html=1;whiteSpace=wrap;connectable=0;overflow=hidden;fillColor=none;top=0;left=0;bottom=0;right=0;pointerEvents=1;fontSize=36;" vertex="1" parent="39">
                    <mxGeometry x="216" width="72" height="66" as="geometry">
                        <mxRectangle width="72" height="66" as="alternateBounds"/>
                    </mxGeometry>
                </mxCell>
                <mxCell id="44" value="" style="shape=partialRectangle;html=1;whiteSpace=wrap;connectable=0;overflow=hidden;fillColor=none;top=0;left=0;bottom=0;right=0;pointerEvents=1;fontSize=36;" vertex="1" parent="39">
                    <mxGeometry x="288" width="72" height="66" as="geometry">
                        <mxRectangle width="72" height="66" as="alternateBounds"/>
                    </mxGeometry>
                </mxCell>
                <mxCell id="45" value="" style="shape=tableRow;horizontal=0;startSize=0;swimlaneHead=0;swimlaneBody=0;top=0;left=0;bottom=0;right=0;collapsible=0;dropTarget=0;fillColor=none;points=[[0,0.5],[1,0.5]];portConstraint=eastwest;fontSize=36;" vertex="1" parent="20">
                    <mxGeometry y="266" width="360" height="68" as="geometry"/>
                </mxCell>
                <mxCell id="46" value="" style="shape=partialRectangle;html=1;whiteSpace=wrap;connectable=0;overflow=hidden;fillColor=none;top=0;left=0;bottom=0;right=0;pointerEvents=1;fontSize=36;" vertex="1" parent="45">
                    <mxGeometry width="72" height="68" as="geometry">
                        <mxRectangle width="72" height="68" as="alternateBounds"/>
                    </mxGeometry>
                </mxCell>
                <mxCell id="47" value="" style="shape=partialRectangle;html=1;whiteSpace=wrap;connectable=0;overflow=hidden;fillColor=none;top=0;left=0;bottom=0;right=0;pointerEvents=1;fontSize=36;" vertex="1" parent="45">
                    <mxGeometry x="72" width="72" height="68" as="geometry">
                        <mxRectangle width="72" height="68" as="alternateBounds"/>
                    </mxGeometry>
                </mxCell>
                <mxCell id="48" value="" style="shape=partialRectangle;html=1;whiteSpace=wrap;connectable=0;overflow=hidden;fillColor=none;top=0;left=0;bottom=0;right=0;pointerEvents=1;fontSize=36;" vertex="1" parent="45">
                    <mxGeometry x="144" width="72" height="68" as="geometry">
                        <mxRectangle width="72" height="68" as="alternateBounds"/>
                    </mxGeometry>
                </mxCell>
                <mxCell id="49" value="" style="shape=partialRectangle;html=1;whiteSpace=wrap;connectable=0;overflow=hidden;fillColor=none;top=0;left=0;bottom=0;right=0;pointerEvents=1;fontSize=36;" vertex="1" parent="45">
                    <mxGeometry x="216" width="72" height="68" as="geometry">
                        <mxRectangle width="72" height="68" as="alternateBounds"/>
                    </mxGeometry>
                </mxCell>
                <mxCell id="50" value="" style="shape=partialRectangle;html=1;whiteSpace=wrap;connectable=0;overflow=hidden;fillColor=none;top=0;left=0;bottom=0;right=0;pointerEvents=1;fontSize=36;" vertex="1" parent="45">
                    <mxGeometry x="288" width="72" height="68" as="geometry">
                        <mxRectangle width="72" height="68" as="alternateBounds"/>
                    </mxGeometry>
                </mxCell>
                <mxCell id="51" value="" style="shape=tableRow;horizontal=0;startSize=0;swimlaneHead=0;swimlaneBody=0;top=0;left=0;bottom=0;right=0;collapsible=0;dropTarget=0;fillColor=none;points=[[0,0.5],[1,0.5]];portConstraint=eastwest;fontSize=36;" vertex="1" parent="20">
                    <mxGeometry y="334" width="360" height="66" as="geometry"/>
                </mxCell>
                <mxCell id="52" value="" style="shape=partialRectangle;html=1;whiteSpace=wrap;connectable=0;overflow=hidden;fillColor=none;top=0;left=0;bottom=0;right=0;pointerEvents=1;fontSize=36;" vertex="1" parent="51">
                    <mxGeometry width="72" height="66" as="geometry">
                        <mxRectangle width="72" height="66" as="alternateBounds"/>
                    </mxGeometry>
                </mxCell>
                <mxCell id="53" value="" style="shape=partialRectangle;html=1;whiteSpace=wrap;connectable=0;overflow=hidden;fillColor=none;top=0;left=0;bottom=0;right=0;pointerEvents=1;fontSize=36;" vertex="1" parent="51">
                    <mxGeometry x="72" width="72" height="66" as="geometry">
                        <mxRectangle width="72" height="66" as="alternateBounds"/>
                    </mxGeometry>
                </mxCell>
                <mxCell id="54" value="" style="shape=partialRectangle;html=1;whiteSpace=wrap;connectable=0;overflow=hidden;fillColor=none;top=0;left=0;bottom=0;right=0;pointerEvents=1;fontSize=36;" vertex="1" parent="51">
                    <mxGeometry x="144" width="72" height="66" as="geometry">
                        <mxRectangle width="72" height="66" as="alternateBounds"/>
                    </mxGeometry>
                </mxCell>
                <mxCell id="55" value="" style="shape=partialRectangle;html=1;whiteSpace=wrap;connectable=0;overflow=hidden;fillColor=none;top=0;left=0;bottom=0;right=0;pointerEvents=1;fontSize=36;" vertex="1" parent="51">
                    <mxGeometry x="216" width="72" height="66" as="geometry">
                        <mxRectangle width="72" height="66" as="alternateBounds"/>
                    </mxGeometry>
                </mxCell>
                <mxCell id="56" value="" style="shape=partialRectangle;html=1;whiteSpace=wrap;connectable=0;overflow=hidden;fillColor=none;top=0;left=0;bottom=0;right=0;pointerEvents=1;fontSize=36;" vertex="1" parent="51">
                    <mxGeometry x="288" width="72" height="66" as="geometry">
                        <mxRectangle width="72" height="66" as="alternateBounds"/>
                    </mxGeometry>
                </mxCell>
                <mxCell id="57" value="&lt;font style=&quot;font-size: 24px;&quot;&gt;Guess!&lt;/font&gt;" style="whiteSpace=wrap;html=1;rounded=0;strokeColor=#000000;strokeWidth=3;fontSize=36;" vertex="1" parent="1">
                    <mxGeometry x="360" y="600" width="120" height="60" as="geometry"/>
                </mxCell>
            </root>
        </mxGraphModel>
    </diagram>
</mxfile>